<?xml version="1.0" encoding="UTF-8"?>
<svg width="18px" height="14px" viewBox="0 0 18 14" version="1.1" xmlns="http://www.w3.org/2000/svg" xmlns:xlink="http://www.w3.org/1999/xlink">
    <title>faucet</title>
    <g id="3.0" stroke="none" stroke-width="1" fill="none" fill-rule="evenodd">
        <g id="001发行_测试网2" transform="translate(-731.000000, -32.000000)" fill="#555555" fill-rule="nonzero">
            <g id="编组-7" transform="translate(0.000000, -1.000000)">
                <g id="编组-8" transform="translate(724.000000, 24.000000)">
                    <g id="faucet" transform="translate(7.500000, 9.000000)">
                        <path d="M12.2751172,6.79902578 L11.0235269,6.79902578 L11.0235269,4.78043105 L11.0235269,4.78043105 C11.0235269,4.53414749 10.8238748,4.33449667 10.5775925,4.33449667 L8.79385237,4.33449667 L8.79385237,1.4864541 L10.5775925,1.4864541 L10.5775925,1.4864541 C10.9880642,1.48645412 11.3208169,1.15370142 11.3208169,0.743229694 C11.3208169,0.332757968 10.9880642,5.28386444e-06 10.5775925,5.28386444e-06 L5.39285336,5.28386444e-06 L5.39285333,5.28386444e-06 C4.9823816,5.28386444e-06 4.64962892,0.332757968 4.64962892,0.743229694 C4.64962894,1.15370142 4.9823816,1.4864541 5.39285333,1.4864541 L7.29550687,1.4864541 L7.29550687,4.33449667 L5.42257507,4.33449667 C4.94691102,4.33449667 4.94691102,4.85772738 4.94691102,5.11042292 L4.94691102,6.70687651 L0.445943564,6.70687651 L0.445943544,6.70687651 C0.19965998,6.70687652 -9.59599007e-07,6.90652865 -9.59599007e-07,7.15281089 C-9.59599007e-07,7.15281089 -9.59599007e-07,7.15281089 -9.59599007e-07,7.15281089 L-9.59599007e-07,10.2535411 L-9.59599007e-07,10.2535404 C-0.00163309774,10.4998173 0.196682527,10.700797 0.442960807,10.702439 C0.443955057,10.7024456 0.444949324,10.7024489 0.445943602,10.7024489 L5.29177568,10.7024489 L5.29177557,10.7024487 C5.78084742,11.6172838 6.73380822,12.1886016 7.77117612,12.1888922 L8.19927349,12.1888922 L8.19927338,12.1888922 C9.36820818,12.1914387 10.4168452,11.4706486 10.8332666,10.3784025 L11.9481039,10.3784025 L11.9481038,10.3784025 C12.5227637,10.3784025 12.9886182,10.844257 12.9886182,11.4189169 L12.9886182,13.0807716 L12.9886182,13.0807716 C12.9886183,13.3270552 13.1882704,13.526706 13.4345526,13.526706 L16.4371746,13.526706 L16.4371747,13.526706 C16.6834582,13.526706 16.8831091,13.3270539 16.8831091,13.0807716 L16.8831091,11.4070283 L16.8831091,11.407063 C16.8782207,8.86417683 14.8180428,6.80395845 12.2751434,6.79903125 L12.2751172,6.79902578 Z" id="路径"></path>
                    </g>
                </g>
            </g>
        </g>
    </g>
</svg>